<svg width="50" height="50" viewBox="0 0 50 50" fill="none" xmlns="http://www.w3.org/2000/svg">
<path fill-rule="evenodd" clip-rule="evenodd" d="M50 25.3471C50 21.7916 48.2778 18.9861 44.9861 18.9861C41.6806 18.9861 39.6806 21.7916 39.6806 25.3194C39.6806 29.5 42.0417 31.6111 45.4305 31.6111C47.0833 31.6111 48.3334 31.2361 49.2778 30.7083V27.9304C48.3333 28.4027 47.25 28.6944 45.875 28.6944C44.5278 28.6944 43.3333 28.2221 43.1805 26.5832H49.9722C49.9723 26.4027 50 25.6804 50 25.3471ZM43.1389 24.0277C43.1389 22.4582 44.0973 21.8054 44.9723 21.8054C45.8195 21.8054 46.7223 22.4582 46.7223 24.0277H43.1389ZM34.3195 18.9861C32.9584 18.9861 32.0833 19.6249 31.5972 20.0694L31.4166 19.2083H28.3611V35.4028L31.8333 34.6667L31.8472 30.7362C32.3472 31.0973 33.0833 31.6112 34.3055 31.6112C36.7916 31.6112 39.0555 29.6111 39.0555 25.2084C39.0417 21.1805 36.75 18.9861 34.3195 18.9861ZM33.4861 28.5555C32.6666 28.5555 32.1806 28.2638 31.8472 27.9027L31.8333 22.7499C32.1944 22.3471 32.6944 22.0693 33.4861 22.0693C34.75 22.0693 35.625 23.486 35.625 25.3054C35.6251 27.1666 34.7639 28.5555 33.4861 28.5555ZM23.5834 18.1666L27.0694 17.4166V14.5972L23.5834 15.3333V18.1666ZM23.5834 19.2221H27.0694V31.3748H23.5834V19.2221ZM19.8473 20.2499L19.625 19.2221H16.625V31.3748H20.0973V23.1387C20.9167 22.0692 22.3056 22.2638 22.7361 22.4165V19.2221C22.2917 19.0555 20.6667 18.7499 19.8473 20.2499ZM12.9028 16.2082L9.51389 16.9305L9.50002 28.0554C9.50002 30.111 11.0417 31.6249 13.0972 31.6249C14.2362 31.6249 15.0694 31.4165 15.5278 31.1665V28.3471C15.0834 28.5277 12.889 29.1665 12.889 27.111V22.1805H15.5278V19.2222H12.889L12.9028 16.2082ZM3.51393 22.7499C3.51393 22.2082 3.95834 21.9999 4.69445 21.9999C5.74997 21.9999 7.08332 22.3193 8.13894 22.8888V19.6249C6.98615 19.1666 5.84723 18.9861 4.69445 18.9861C1.87502 18.9861 0 20.4583 0 22.9166C0 26.7499 5.27782 26.1388 5.27782 27.7916C5.27782 28.4305 4.72228 28.6388 3.94447 28.6388C2.79169 28.6388 1.31948 28.1666 0.152826 27.5277V30.8333C1.44447 31.3888 2.75009 31.6249 3.94447 31.6249C6.83333 31.6249 8.81948 30.1943 8.81948 27.7083C8.80561 23.5694 3.51393 24.3055 3.51393 22.7499Z" fill="#635BFF"/>
</svg>
